<svg width="1043" height="1044" viewBox="0 0 1043 1044" fill="none" xmlns="http://www.w3.org/2000/svg">
<path d="M1042.85 521.792C1043.08 655.379 991.786 783.918 899.617 880.682C898.991 881.346 898.351 882.01 897.712 882.674C849.071 933.344 790.682 973.667 726.053 1001.22C661.425 1028.78 591.889 1043 521.623 1043.02C451.357 1043.05 381.81 1028.88 317.16 1001.38C252.51 973.874 194.09 933.595 145.41 882.962C144.77 882.299 144.131 881.635 143.504 880.972C51.6648 784.433 0.313649 656.413 0.00143207 523.216C-0.310785 390.019 50.4396 261.761 141.825 164.793C142.439 164.117 143.078 163.453 143.717 162.789C192.397 111.679 250.959 70.981 315.85 43.1636C380.742 15.3462 450.612 0.988651 521.223 0.961586C591.834 0.934522 661.714 15.2385 726.627 43.0062C791.54 70.7738 850.133 111.427 898.852 162.499C899.492 163.163 900.131 163.826 900.746 164.502C992.125 261.039 1042.98 388.913 1042.85 521.792Z" fill="#3F3318"/>
<path d="M1042.85 520.74H0V523.244H1042.85V520.74Z" fill="white"/>
<path d="M522.676 0.961548H520.169V1043.02H522.676V0.961548Z" fill="white"/>
<path d="M293.36 350.265C271.006 297.44 238.602 249.455 197.945 208.972C181.129 192.159 162.995 176.715 143.717 162.789C143.078 163.453 142.439 164.117 141.825 164.793C253.197 245.11 325.833 375.89 325.89 523.319C325.946 670.122 254.025 800.483 143.504 880.971C144.131 881.635 144.77 882.299 145.41 882.962C164.149 869.288 181.795 854.176 198.187 837.765C260.74 775.159 303.204 695.346 320.156 608.514C337.107 521.683 327.778 431.774 293.36 350.265Z" fill="white"/>
<path d="M716.957 523.17C716.9 375.741 789.435 244.904 900.746 164.503C900.131 163.826 899.492 163.163 898.852 162.499C841.905 203.686 795.524 257.759 763.503 320.294C731.483 382.829 714.731 452.051 714.62 522.296C714.509 592.542 731.041 661.816 762.864 724.452C794.686 787.089 840.896 841.307 897.712 882.674C898.351 882.01 898.99 881.346 899.617 880.682C789.047 800.278 717.013 669.973 716.957 523.17Z" fill="white"/>
</svg>
