<svg width="743" height="667" viewBox="0 0 743 667" fill="none" xmlns="http://www.w3.org/2000/svg">
<g clip-path="url(#clip0_118_36)">
<path d="M706.571 619.327V620.058C706.571 620.25 706.571 620.451 706.556 620.643C706.37 630.622 702.881 640.258 696.631 648.049C696.315 648.457 695.983 648.849 695.644 649.242C695.135 649.842 694.611 650.42 694.071 650.989C694.024 651.035 693.978 651.089 693.924 651.136L693.901 651.159C693.839 651.22 693.778 651.29 693.716 651.351C692.768 652.329 691.773 653.265 690.732 654.161C690.523 654.338 690.308 654.523 690.084 654.7C682.033 661.374 671.916 665.062 661.451 665.139C661.374 665.146 661.289 665.146 661.212 665.146H660.942C660.865 665.146 660.788 665.146 660.711 665.139C660.441 665.139 660.179 665.131 659.909 665.123C649.442 664.876 639.383 661.016 631.446 654.199C631.23 654.022 631.014 653.838 630.806 653.645C629.981 652.922 629.186 652.159 628.423 651.374C628.361 651.313 628.3 651.243 628.238 651.182L628.215 651.159C628.161 651.113 628.115 651.059 628.068 651.012C627.42 650.335 626.796 649.634 626.194 648.918C625.863 648.526 625.539 648.126 625.223 647.718C619.132 639.985 615.739 630.478 615.56 620.643C615.545 620.458 615.545 620.266 615.545 620.073V619.357C615.545 619.273 615.545 619.188 615.553 619.103C615.662 609.249 618.995 599.701 625.045 591.913C625.361 591.505 625.685 591.105 626.017 590.712C626.626 589.973 627.266 589.257 627.922 588.557C627.968 588.503 628.014 588.457 628.068 588.403C628.068 588.395 628.076 588.388 628.084 588.38C628.145 588.318 628.207 588.249 628.276 588.187C629.132 587.302 630.024 586.45 630.952 585.632C631.161 585.439 631.376 585.254 631.592 585.077C639.709 578.176 650.003 574.352 660.665 574.277C660.742 574.269 660.827 574.269 660.904 574.269H661.405C671.82 574.334 681.896 577.977 689.937 584.585C690.153 584.769 690.369 584.946 690.585 585.131C691.711 586.086 692.791 587.102 693.816 588.164C693.878 588.226 693.94 588.295 694.001 588.357L694.017 588.372C694.071 588.418 694.125 588.48 694.171 588.526C694.742 589.127 695.289 589.75 695.821 590.381C696.161 590.774 696.484 591.167 696.808 591.575C703.023 599.42 706.454 609.102 706.563 619.103C706.57 619.178 706.572 619.252 706.571 619.327Z" fill="#C85103"/>
<path d="M661.451 574.454H659.909V665.293H661.451V574.454Z" fill="white"/>
<path d="M706.571 619.103H615.182V620.643H706.571V619.103Z" fill="white"/>
<path d="M641.386 619.103C641.265 613.493 639.808 607.992 637.135 603.055C634.463 598.119 630.652 593.888 626.017 590.712C625.685 591.105 625.362 591.505 625.045 591.913C629.501 594.943 633.169 598.991 635.744 603.72C638.319 608.449 639.727 613.722 639.851 619.103C639.859 619.357 639.859 619.611 639.859 619.873C639.859 620.135 639.859 620.389 639.851 620.643C639.726 625.988 638.336 631.228 635.793 635.934C633.251 640.639 629.628 644.677 625.223 647.718C625.539 648.126 625.863 648.526 626.194 648.919C630.779 645.734 634.545 641.513 637.186 636.599C639.826 631.685 641.265 626.218 641.386 620.643C641.401 620.389 641.401 620.127 641.401 619.873C641.401 619.619 641.401 619.357 641.386 619.103Z" fill="white"/>
<path d="M681.509 620.643C681.501 620.389 681.501 620.135 681.501 619.873C681.501 619.611 681.501 619.357 681.509 619.103C681.636 613.621 683.095 608.252 685.76 603.457C688.425 598.661 692.216 594.584 696.808 591.575C696.484 591.167 696.161 590.774 695.821 590.381C691.054 593.537 687.123 597.798 684.364 602.799C681.604 607.801 680.098 613.395 679.974 619.103C679.959 619.357 679.959 619.619 679.959 619.873C679.959 620.127 679.959 620.389 679.974 620.643C680.097 626.315 681.585 631.874 684.312 636.852C687.04 641.829 690.926 646.079 695.644 649.242C695.983 648.849 696.315 648.457 696.631 648.049C692.088 645.032 688.341 640.965 685.708 636.194C683.076 631.423 681.635 626.088 681.509 620.643Z" fill="white"/>
<path d="M743 664.862H0V666.586H743V664.862Z" fill="#505050"/>
<path d="M301.484 542.278L299.347 584.942L321.783 589.208L328.194 548.678L301.484 542.278Z" fill="#9D616A"/>
<path d="M412.599 556.144L417.942 591.341H438.241L433.968 554.011L412.599 556.144Z" fill="#9D616A"/>
<path d="M305.757 460.152L301.484 509.214L297.21 550.811C297.21 550.811 313.236 544.412 328.194 554.011C328.194 554.011 337.81 551.878 335.673 510.281L345.289 466.551L305.757 460.152Z" fill="#EFEFEF"/>
<path d="M392.299 476.15C392.299 476.15 398.71 514.547 401.915 517.747C401.915 517.747 407.207 552.084 409.777 560.764C409.931 561.383 410.162 561.981 410.463 562.544C412.599 565.743 436.105 573.209 437.173 560.41C438.242 547.611 441.447 526.28 430.763 510.281L424.352 469.751L392.299 476.15Z" fill="#EFEFEF"/>
<path d="M456.939 471.351C455.87 483.083 397.107 480.95 386.423 480.95C383.047 480.95 378.709 480.427 376.551 474.604C372.854 464.653 370.824 450.115 370.14 444.43C369.863 449.699 367.426 462.455 361.337 470.626C357.629 475.617 351.496 474.625 344.755 473.484C333.558 471.585 311.302 464.674 305.223 466.018C295.607 468.151 284.036 468.364 283.855 466.018C283.772 464.735 283.779 463.449 283.876 462.167C285.286 440.11 305.757 380.318 305.757 375.892C305.757 370.559 315.373 348.16 315.373 348.16L413.668 336.428C413.668 336.428 452.601 441.273 457.954 467.084C458.413 469.314 457.024 470.423 456.939 471.351Z" fill="#EFEFEF"/>
<path d="M324.989 583.875L297.21 578.542L299.881 622.805L321.784 638.271C321.784 638.271 319.647 595.608 324.989 583.875Z" fill="#EFEFEF"/>
<path d="M438.242 580.676C438.242 580.676 424.352 589.208 412.599 580.676L422.215 620.139L438.242 618.006C438.242 618.006 445.721 594.541 438.242 580.676Z" fill="#EFEFEF"/>
<path d="M441.447 613.74C441.447 613.74 419.01 614.806 419.01 616.939V652.137C419.01 655.336 423.284 659.603 422.215 661.736C421.147 663.869 428.626 669.202 445.72 666.002C462.815 662.802 456.405 652.137 456.405 652.137C456.405 652.137 439.31 622.272 441.447 613.74Z" fill="#C85103"/>
<path d="M296.676 614.273C296.676 614.273 322.318 614.806 322.318 616.939V652.137C322.318 655.336 318.044 659.603 319.113 661.736C320.181 663.869 312.702 669.202 295.607 666.002C278.513 662.803 284.923 652.137 284.923 652.137C284.923 652.137 298.813 622.806 296.676 614.273Z" fill="#C85103"/>
<path d="M458.541 471.884C457.473 483.616 395.505 484.683 384.82 484.683C381.444 484.683 378.709 480.427 376.551 474.604C388.015 472.332 437.323 463.063 457.954 467.084C458.348 468.654 458.545 470.266 458.541 471.884Z" fill="#C85103"/>
<path d="M361.337 470.625C357.629 475.617 352.565 478.892 345.823 477.75C334.626 475.852 311.302 471.073 305.223 472.417C295.607 474.55 284.036 468.364 283.855 466.018C283.772 464.735 283.779 463.449 283.876 462.167C306.366 461.56 346.197 461.826 361.337 470.625Z" fill="#C85103"/>
<path d="M319.647 207.371C319.647 207.371 300.415 200.972 283.321 220.17L280.115 226.57C280.115 226.57 255.542 234.036 248.063 239.369C248.063 239.369 225.626 234.036 197.847 239.369L170.068 232.969C170.068 232.969 116.647 195.639 111.305 219.104C105.963 242.569 161.52 251.101 161.52 251.101L207.463 263.9C207.463 263.9 242.72 272.433 256.61 266.033C256.61 266.033 296.142 263.9 303.621 248.968L319.647 256.434V207.371Z" fill="#9D616A"/>
<path d="M385.889 202.038C385.889 202.038 425.42 197.772 440.378 218.037L471.363 226.57C471.363 226.57 505.552 220.17 518.373 223.37L546.152 215.904C546.152 215.904 572.863 173.241 587.82 184.973C602.778 196.706 552.563 234.036 552.563 234.036L485.252 256.434C485.252 256.434 432.899 260.701 422.215 241.502L410.463 268.167L365.589 257.501L385.889 202.038Z" fill="#9D616A"/>
<path d="M348.494 196.706C364.426 196.706 377.342 183.812 377.342 167.908C377.342 152.003 364.426 139.11 348.494 139.11C332.562 139.11 319.647 152.003 319.647 167.908C319.647 183.812 332.562 196.706 348.494 196.706Z" fill="#9D616A"/>
<path d="M333.536 184.973V208.438L344.22 245.768L376.273 208.438C376.273 208.438 367.726 182.84 367.726 178.574C367.726 174.307 333.536 184.973 333.536 184.973Z" fill="#9D616A"/>
<path d="M418.476 339.094C418.476 339.094 417.952 342.945 413.091 343.297C403.358 344.011 386.968 345.664 376.273 349.227C360.247 354.56 312.168 354.56 312.168 354.56L309.048 257.949L310.565 250.568C309.497 242.035 318.044 207.905 318.044 207.905L324.284 203.308L330.128 202.049L331.934 203.638C331.934 217.845 345.823 231.37 345.823 231.37C366.123 221.77 374.671 200.439 374.671 200.439L380.686 199.553L386.979 200.257L392.673 200.897L390.697 202.572L389.628 204.705C389.682 204.577 389.564 204.833 389.628 204.705C374.072 237.652 392.855 252.552 404.586 259.101C409.448 261.831 409.928 264.434 409.928 264.434C409.928 264.434 414.319 263.122 414.202 267.633C413.849 282.235 411.189 315.203 415.27 324.162C420.613 335.895 418.476 339.094 418.476 339.094Z" fill="#EFEFEF"/>
<path d="M318.044 148.439C318.736 146.073 319.549 143.743 320.48 141.46C321.698 138.669 320.48 130.294 321.698 130.294H326.57L332.66 124.711L336.314 127.503L341.186 124.711L347.276 127.503L353.366 124.711L363.11 131.69L365.546 130.294L367.982 134.482H369.2L374.072 141.46H376.508V148.439H378.944V166.584L375.739 179.107L374.67 172.962C374.67 172.879 374.643 172.797 374.593 172.73C374.543 172.663 374.472 172.614 374.391 172.59C374.311 172.566 374.225 172.57 374.146 172.599C374.067 172.628 374 172.682 373.955 172.753L371.636 176.355L370.149 170.672C368.007 162.161 362.98 154.653 355.921 149.424C346.908 142.895 333.878 139.785 320.48 158.21L318.044 148.439Z" fill="#222222"/>
<path d="M324.284 203.308C322.254 215.627 316.121 249.693 309.048 257.949L308.963 255.368C307.894 246.835 315.373 205.238 315.373 205.238L324.284 203.308Z" fill="#C85103"/>
<path d="M380.686 199.553C375.322 209.664 359.958 235.764 345.289 234.036C331.132 232.372 329.957 211.275 330.128 202.049L333.536 201.313C333.536 215.52 346.357 227.636 346.357 227.636C366.657 218.037 373.121 198.711 373.121 198.711L380.686 199.553Z" fill="#C85103"/>
<path d="M415.805 260.701C415.805 260.701 415.687 263.559 415.57 268.071C412.597 267.911 409.647 267.454 406.766 266.705C373.762 258.013 383.41 213.27 386.979 200.257L392.673 200.897H392.684C392.844 201.047 393.015 201.206 393.186 201.366C377.63 234.313 395.376 250.333 407.108 256.882C409.862 258.46 412.778 259.74 415.805 260.701Z" fill="#C85103"/>
<path d="M421.147 342.827C421.147 342.827 417.952 342.945 413.091 343.297C410.652 334.365 408.705 325.307 407.257 316.163C405.847 306.308 406.296 282.064 406.766 266.705C406.894 262.684 407.012 259.261 407.108 256.882C409.862 258.46 412.778 259.74 415.805 260.701C415.805 260.701 415.687 263.559 415.57 268.071C415.217 282.672 414.929 314.67 419.01 323.629C424.352 335.361 421.147 342.827 421.147 342.827Z" fill="#C85103"/>
<path d="M321.249 269.684C321.249 269.684 355.439 253.354 388.56 269.684Z" fill="#C85103"/>
<path d="M314.041 354.888C314.041 354.888 324.066 354.118 348.743 356.427C373.419 358.737 414.29 343.34 414.29 343.34" fill="#CACACA"/>
<path d="M179.107 182.838V183.57C179.107 183.762 179.107 183.962 179.091 184.155C178.906 194.134 175.416 203.77 169.167 211.56C168.85 211.968 168.519 212.361 168.18 212.754C167.67 213.354 167.146 213.932 166.606 214.501C166.56 214.547 166.514 214.601 166.46 214.647L166.437 214.671C166.375 214.732 166.313 214.801 166.252 214.863C165.303 215.841 164.308 216.777 163.267 217.673C163.059 217.85 162.843 218.035 162.62 218.212C154.568 224.886 144.452 228.574 133.987 228.65C133.91 228.658 133.825 228.658 133.748 228.658H133.478C133.401 228.658 133.324 228.658 133.247 228.65C132.977 228.65 132.714 228.643 132.445 228.635C121.977 228.388 111.919 224.528 103.982 217.711C103.766 217.534 103.55 217.35 103.342 217.157C102.516 216.433 101.722 215.671 100.959 214.886C100.897 214.825 100.835 214.755 100.774 214.694L100.75 214.671C100.697 214.624 100.65 214.57 100.604 214.524C99.9561 213.847 99.3316 213.146 98.7301 212.43C98.3984 212.038 98.0746 211.637 97.7584 211.229C91.6675 203.497 88.2744 193.99 88.0959 184.155C88.0804 183.97 88.0804 183.778 88.0804 183.585V182.869C88.0804 182.785 88.0804 182.7 88.0882 182.615C88.1974 172.761 91.531 163.213 97.581 155.425C97.8971 155.017 98.221 154.617 98.5526 154.224C99.1618 153.485 99.8018 152.769 100.457 152.069C100.504 152.015 100.55 151.969 100.604 151.915C100.604 151.907 100.612 151.899 100.619 151.892C100.681 151.83 100.743 151.761 100.812 151.699C101.668 150.814 102.56 149.962 103.488 149.143C103.696 148.951 103.912 148.766 104.128 148.589C112.245 141.688 122.539 137.863 133.2 137.789C133.277 137.781 133.362 137.781 133.439 137.781H133.941C144.356 137.846 154.431 141.489 162.473 148.096C162.689 148.281 162.905 148.458 163.121 148.643C164.247 149.598 165.326 150.614 166.352 151.676C166.414 151.738 166.475 151.807 166.537 151.869L166.552 151.884C166.606 151.93 166.66 151.992 166.707 152.038C167.277 152.638 167.825 153.262 168.357 153.893C168.696 154.286 169.02 154.678 169.344 155.086C175.558 162.932 178.989 172.614 179.099 182.615C179.105 182.689 179.108 182.764 179.107 182.838Z" fill="#C85103"/>
<path d="M133.987 137.966H132.444V228.804H133.987V137.966Z" fill="white"/>
<path d="M179.107 182.615H87.718V184.155H179.107V182.615Z" fill="white"/>
<path d="M113.921 182.615C113.8 177.005 112.343 171.504 109.671 166.567C106.999 161.63 103.187 157.399 98.5526 154.224C98.2209 154.617 97.8971 155.017 97.5809 155.425C102.037 158.455 105.705 162.503 108.28 167.232C110.855 171.961 112.263 177.234 112.387 182.615C112.395 182.869 112.395 183.123 112.395 183.385C112.395 183.647 112.395 183.901 112.387 184.155C112.262 189.5 110.871 194.74 108.329 199.445C105.786 204.151 102.164 208.189 97.7582 211.229C98.0743 211.637 98.3982 212.038 98.7299 212.43C103.315 209.246 107.081 205.024 109.721 200.111C112.361 195.197 113.8 189.73 113.921 184.155C113.937 183.901 113.937 183.639 113.937 183.385C113.937 183.131 113.937 182.869 113.921 182.615Z" fill="white"/>
<path d="M154.044 184.155C154.037 183.901 154.037 183.647 154.037 183.385C154.037 183.123 154.037 182.869 154.044 182.615C154.172 177.133 155.63 171.764 158.295 166.968C160.96 162.173 164.752 158.096 169.344 155.086C169.02 154.678 168.696 154.286 168.357 153.893C163.59 157.049 159.659 161.31 156.899 166.311C154.14 171.313 152.634 176.907 152.51 182.615C152.494 182.869 152.494 183.131 152.494 183.385C152.494 183.639 152.494 183.901 152.51 184.155C152.633 189.827 154.121 195.386 156.848 200.364C159.575 205.341 163.462 209.59 168.179 212.754C168.519 212.361 168.85 211.968 169.166 211.56C164.623 208.544 160.877 204.477 158.244 199.706C155.611 194.935 154.171 189.6 154.044 184.155Z" fill="white"/>
</g>
<defs>
<clipPath id="clip0_118_36">
<rect width="743" height="667" fill="white"/>
</clipPath>
</defs>
</svg>
