<svg width="433" height="635" viewBox="0 0 433 635" fill="none" xmlns="http://www.w3.org/2000/svg">
<g clip-path="url(#clip0_102_30)">
<path d="M3.22205 558.671C2.58383 558.671 2.06738 558.155 2.06738 557.517V232.446C2.06738 150.643 68.6805 84.0928 150.56 84.0928H401.281C401.92 84.0928 402.436 84.6087 402.436 85.2463C402.436 85.884 401.92 117.546 401.281 117.546L150.56 86.3999C69.9547 86.3999 4.37671 151.916 4.37671 232.446V557.517C4.37671 558.155 3.86026 558.671 3.22205 558.671Z" fill="#3F3D56"/>
<path d="M402.158 0C402.797 0 403.313 0.51596 403.313 1.15358V326.225C403.313 408.028 336.7 474.578 254.82 474.578H4.09924C3.46103 474.578 2.94458 474.062 2.94458 473.424C2.94458 472.787 3.46103 472.271 4.09924 472.271H254.82C335.426 472.271 401.004 406.755 401.004 326.225V1.15358C401.004 0.51596 401.52 0 402.158 0Z" fill="#3F3D56"/>
<path d="M285.869 308.354C285.869 303.369 287.854 298.491 291.584 294.86L344.18 243.673C345.553 238.456 348.175 233.577 351.77 229.554C356.115 224.562 361.446 220.94 366.783 219.358C372.213 217.747 377.01 218.431 380.294 221.282C386.993 227.099 385.094 240.279 376.063 250.659C372.583 254.772 368.115 258.046 363.138 260.129L315.393 309.299L341.677 349.093C346.767 355.022 347.895 363.229 344.578 370.453C341.375 377.432 334.677 381.779 327.097 381.798C318.99 381.819 311.811 376.97 308.807 369.447L287.221 315.363C286.311 313.083 285.869 310.706 285.869 308.354Z" fill="#FFB6B6"/>
<path d="M329.992 261.743C352.949 261.743 371.56 243.15 371.56 220.215C371.56 197.279 352.949 178.686 329.992 178.686C307.035 178.686 288.424 197.279 288.424 220.215C288.424 243.15 307.035 261.743 329.992 261.743Z" fill="#3F3D56"/>
<path d="M351.642 331.355L320.702 354.918L359.955 381.853L379.652 339.672L351.642 331.355Z" fill="#FFB6B6"/>
<path d="M368.519 351.628C386.608 351.628 401.273 336.977 401.273 318.905C401.273 300.832 386.608 286.181 368.519 286.181C350.429 286.181 335.764 300.832 335.764 318.905C335.764 336.977 350.429 351.628 368.519 351.628Z" fill="#FFB6B6"/>
<path d="M371.066 355.574C371.066 355.574 378.447 331.969 373.677 327.507C368.908 323.046 369.059 327.659 369.059 327.659L375.109 304.912C375.109 304.912 372.226 291.696 353.132 289.878C353.132 289.878 359.915 277.023 369.774 279.144C379.633 281.265 380.256 283.69 384.444 282.873C388.632 282.056 397.311 289.649 397.311 289.649C397.311 289.649 401.757 286.025 401.253 290.497C400.75 294.969 405.474 302.28 405.474 302.28C405.474 302.28 408.163 300.604 407.423 305.296C406.682 309.988 410.163 312.454 410.163 312.454C410.163 312.454 405.555 315.426 407.033 317.77C408.511 320.115 414.418 321.958 412.185 324.341C409.953 326.723 411.63 332.237 404.071 338.055C396.513 343.872 371.066 355.574 371.066 355.574Z" fill="#3F3318"/>
<path d="M360.591 557.635L345.58 652.228L272.836 686.836L261.29 594.55L360.591 557.635Z" fill="#3F3318"/>
<path d="M318.882 754.428L318.607 754.143L241.287 673.887C233.803 666.119 230.18 655.516 231.346 644.797L235.379 607.715L274.538 614.828L276.035 638.206L341.806 744.785L318.882 754.428Z" fill="#FFB6B6"/>
<path d="M277.845 525.948L269.72 548.03L233.23 607.568C232.158 609.317 231.985 611.409 232.757 613.309C233.528 615.208 235.11 616.59 237.097 617.099L317.628 637.729L354.909 585.426C365.543 570.505 371.045 552.242 370.425 533.941L277.845 525.948Z" fill="#3F3318"/>
<path d="M360.961 548.407H268.55L268.602 547.783L280.269 406.498C281.798 387.981 291.383 371.208 306.565 360.48L306.725 360.367L369.891 362.704L356.177 490.045L374.414 526.724C376.743 531.41 376.487 536.861 373.727 541.306C370.969 545.753 366.196 548.407 360.961 548.407Z" fill="#C85103"/>
<path d="M335.689 388.79C330.415 388.791 325.272 386.653 321.471 382.642L281.405 340.358C276.135 334.797 274.751 326.687 277.876 319.696L307.812 252.712C307.156 247.359 307.788 241.856 309.643 236.79C311.832 230.548 315.446 225.214 319.819 221.774C324.269 218.271 328.979 217.133 333.085 218.573C341.462 221.504 344.574 234.451 340.022 247.432C338.31 252.536 335.368 257.229 331.514 261.004L305.339 324.321L344.484 351.594C351.405 355.222 355.49 362.431 355.081 370.37C354.686 378.038 350.07 384.551 343.034 387.366C340.64 388.325 338.15 388.79 335.689 388.79Z" fill="#FFB6B6"/>
<path d="M46.2566 263.803C56.3746 275.906 60.3017 291.917 63.001 307.454C63.9877 313.133 64.8511 318.834 65.5905 324.551C68.3503 345.891 69.2784 368.164 61.8191 388.349C59.9299 393.462 58.0151 400.348 62.5236 403.415C66.105 405.852 71.3444 403.322 73.2944 399.456C75.2444 395.591 74.8566 391.011 74.422 386.704C69.676 391.797 71.157 401.227 77.2362 404.623C83.3155 408.019 92.1326 404.342 93.9902 397.635C94.958 404.791 101.987 410.586 109.203 410.178C116.419 409.771 122.748 403.221 122.902 396.001C119.161 399.973 121.011 407.165 125.655 410.031C130.299 412.897 136.49 412.092 141.253 409.428C146.016 406.765 149.663 402.528 153.205 398.378C148.536 401.26 147.442 408.554 151.062 412.676C154.682 416.798 162.063 416.664 165.531 412.414C168.389 408.911 168.374 403.798 166.979 399.5C165.584 395.201 163.017 391.393 161.084 387.307C152.231 368.598 157.446 346.409 164.76 327.047C172.074 307.685 181.509 288.214 180.719 267.534" fill="white"/>
<path d="M45.6442 264.414C53.0639 273.374 57.1053 284.467 59.7507 295.659C62.6171 307.785 64.4049 320.27 65.6673 332.657C66.9448 345.192 67.3684 357.954 65.4654 370.45C64.5476 376.478 63.0645 382.388 60.984 388.119C59.5494 392.072 57.8192 397.042 59.5914 401.162C61.6809 406.02 67.5323 406.094 71.2831 403.175C76.2838 399.283 75.8526 392.35 75.2881 386.704C75.2197 386.021 74.3563 385.484 73.8097 386.092C69.9072 390.436 69.7973 397.338 73.1572 402.047C76.7185 407.039 83.3266 407.941 88.6071 405.211C91.5698 403.679 93.8723 401.073 94.8253 397.865H93.1552C94.3119 405.491 101.816 411.709 109.602 411.015C117.226 410.335 123.486 403.602 123.768 396.001C123.795 395.272 122.788 394.833 122.29 395.39C119.771 398.203 119.499 402.152 120.904 405.567C122.456 409.342 125.809 411.804 129.81 412.479C140.1 414.215 147.785 406.054 153.817 398.989C154.418 398.286 153.645 397.062 152.768 397.631C148.912 400.13 147.212 405.11 148.423 409.508C149.696 414.132 154.213 416.851 158.899 416.526C164.169 416.16 167.911 412.298 168.618 407.136C169.474 400.882 166.27 395.31 163.432 390.005C149.936 364.78 161.841 336.94 171.333 312.595C176.948 298.194 182.119 283.203 181.585 267.534C181.547 266.424 179.815 266.419 179.853 267.534C180.74 293.558 166.136 316.342 159.322 340.67C156.09 352.214 154.284 364.531 156.621 376.42C157.783 382.334 157.999 388.552 160.834 393.828C163.509 398.806 168.54 403.912 166.21 409.593C164.044 414.87 156.798 416.568 152.446 412.832C148.296 409.268 149.184 402.015 153.642 399.125L152.593 397.766C147.33 403.929 143.111 403.125 134.276 403.056C130.476 403.027 124.829 409.307 122.964 405.89C121.38 402.99 121.214 399.182 123.514 396.613L122.036 396.001C121.785 402.755 116.028 408.906 109.202 409.313C102.242 409.728 95.8532 404.182 94.8253 397.405C94.6901 396.514 93.3786 396.653 93.1551 397.405C91.3159 403.596 83.2057 407.099 77.5207 403.787C71.9765 400.557 70.7933 392.036 75.0344 387.316L73.556 386.704C74.0764 391.908 74.7365 398.765 69.7809 402.143C67.901 403.425 65.3621 404.062 63.2809 402.87C61.2523 401.708 63.816 398.334 63.8419 396.135C63.9001 391.183 63.1784 387.539 64.5314 382.865C66.148 377.281 67.1878 371.542 67.7978 365.764C69.0428 353.972 68.4517 342.057 67.1483 330.296C65.8543 318.622 64.1601 306.877 61.4763 295.433C58.7595 283.849 54.5402 272.454 46.8689 263.191C46.1578 262.332 44.9385 263.562 45.6442 264.414Z" fill="#3F3D56"/>
<path d="M113.492 278.563C78.2279 278.563 40.7487 272.701 40.7487 261.836C40.7487 250.972 78.2279 245.109 113.492 245.109C148.757 245.109 186.236 250.972 186.236 261.836C186.236 272.701 148.757 278.563 113.492 278.563ZM113.492 247.417C71.9844 247.417 43.058 255.016 43.058 261.836C43.058 268.656 71.9844 276.256 113.492 276.256C155.001 276.256 183.927 268.656 183.927 261.836C183.927 255.016 155.001 247.417 113.492 247.417Z" fill="#3F3D56"/>
<path d="M32.7562 294.769C32.3942 294.769 32.0311 294.748 31.6692 294.707L9.23778 292.123C4.49847 291.576 0.838278 287.571 0.723262 282.805L0.00272852 252.97C-0.0626717 250.229 1.05027 247.585 3.05514 245.714C5.06114 243.842 7.78092 242.916 10.5108 243.169L44.1641 246.296C47.9608 246.65 51.1936 249.213 52.4001 252.827L57.807 269.033C59.0564 272.78 57.8453 276.983 54.794 279.492L38.8858 292.578C37.1617 293.996 34.9753 294.769 32.7562 294.769Z" fill="#3F3D56"/>
</g>
<defs>
<clipPath id="clip0_102_30">
<rect width="433" height="635" fill="white"/>
</clipPath>
</defs>
</svg>
