<svg width="763" height="774" viewBox="0 0 763 774" fill="none" xmlns="http://www.w3.org/2000/svg">
<path d="M282.826 14.3664C265.534 25.8597 265.534 28.733 290.031 28.733C305.882 28.733 337.585 38.7896 360.641 50.2829C416.841 80.4526 426.928 77.5793 426.928 35.9163C426.928 2.87319 421.164 -0.000119364 366.405 -0.000119364C331.821 -0.000119364 294.354 7.18316 282.826 14.3664Z" fill="#AD4500"/>
<path d="M445.661 34.4802C445.661 50.2834 442.779 73.2699 439.897 84.7631C431.251 117.806 473.041 117.806 511.948 86.1998C545.092 57.4667 545.092 56.03 519.154 35.9168C471.6 1.43705 444.22 0.000396757 445.661 34.4802Z" fill="#AD4500"/>
<path d="M200.687 74.7043C151.693 129.297 117.108 208.313 157.457 173.834C168.985 165.214 223.744 147.974 279.944 135.044C389.462 110.621 409.636 87.6342 347.672 60.3377C290.031 33.0412 233.831 40.2245 200.687 74.7043Z" fill="#AD4500"/>
<path d="M522.034 102.003C464.393 146.54 474.481 168.09 549.414 166.653C585.439 165.216 614.26 163.78 614.26 160.906C614.26 152.286 569.588 71.8335 565.265 71.8335C562.383 71.8335 543.65 84.7635 522.034 102.003Z" fill="#AD4500"/>
<path d="M294.353 150.848C147.368 192.511 134.399 205.441 143.045 284.457C151.691 366.346 216.538 445.362 294.353 474.095C373.609 501.392 389.46 485.589 425.486 340.486C441.337 278.71 461.512 218.37 471.599 206.877C484.568 191.074 484.568 181.017 473.04 169.524C452.866 149.411 366.404 216.934 274.179 324.683C236.712 367.783 203.568 399.389 199.245 395.079C194.922 390.769 246.799 330.43 315.968 261.47C385.137 191.074 437.014 130.734 432.691 124.988C419.722 112.058 428.368 110.621 294.353 150.848Z" fill="#AD4500"/>
<path d="M532.123 181.017C520.595 186.764 526.359 208.313 550.856 254.286C569.589 290.203 585.441 333.303 586.882 350.542C586.882 374.966 591.205 373.529 607.056 337.613C637.317 272.963 632.994 219.807 596.969 195.384C562.384 170.96 559.502 170.96 532.123 181.017Z" fill="#AD4500"/>
<path d="M473.042 239.92C465.837 254.287 451.427 300.26 442.781 341.923C434.134 385.023 419.724 432.432 411.078 448.236C402.432 464.039 399.55 479.842 403.873 484.152C418.283 499.955 514.832 455.419 542.211 419.502C573.914 379.276 571.032 330.43 533.565 254.287C509.068 209.751 491.775 205.441 473.042 239.92Z" fill="#AD4500"/>
<path d="M0 204.018C0 216.823 14.1296 229.627 32.4981 232.828C72.0611 239.23 148.361 365.673 176.62 474.51C187.924 519.326 197.815 604.154 197.815 663.375V769.011L258.572 772.212C334.872 773.812 428.128 773.812 505.841 772.212L565.185 769.011V663.375C565.185 604.154 575.076 519.326 586.38 474.51C614.639 365.673 690.939 239.23 731.915 232.828C748.87 229.627 763 216.823 763 204.018C763 184.812 702.243 181.611 381.5 181.611C60.7574 181.611 0 184.812 0 204.018ZM145.535 239.23C149.774 244.032 149.774 258.437 145.535 271.241C139.883 288.847 132.819 290.448 118.689 276.043C107.385 266.439 98.9074 252.035 98.9074 244.032C98.9074 228.026 132.819 224.825 145.535 239.23ZM254.333 247.233C254.333 256.836 247.269 279.244 238.791 296.85C223.248 330.461 221.835 330.461 203.467 301.651C173.794 256.836 179.446 229.627 219.009 229.627C238.791 229.627 254.333 237.63 254.333 247.233ZM367.37 244.032C367.37 252.035 360.306 279.244 351.828 304.853C337.698 348.067 336.285 348.067 316.504 319.257C284.006 268.04 291.07 229.627 332.046 229.627C351.828 229.627 367.37 236.029 367.37 244.032ZM466.278 258.437C466.278 274.442 457.8 301.651 446.496 319.257C426.715 348.067 425.302 348.067 411.172 304.853C388.565 239.23 391.391 229.627 430.954 229.627C454.974 229.627 466.278 237.63 466.278 258.437ZM579.315 247.233C579.315 256.836 572.25 279.244 563.772 296.85C548.23 330.461 546.817 330.461 528.448 301.651C498.776 256.836 504.428 229.627 543.991 229.627C563.772 229.627 579.315 237.63 579.315 247.233ZM664.093 244.032C664.093 252.035 655.615 266.439 644.311 276.043C630.181 290.448 623.117 288.847 617.465 271.241C613.226 258.437 613.226 244.032 617.465 239.23C630.181 224.825 664.093 228.026 664.093 244.032ZM190.75 325.66C204.88 376.877 182.272 399.285 161.078 356.07C151.187 335.263 146.948 312.855 149.774 306.453C162.491 284.045 182.272 293.649 190.75 325.66ZM303.787 389.681C291.07 413.69 258.572 408.888 248.681 380.078C244.443 367.274 247.269 340.065 255.746 322.459C271.289 288.847 272.702 288.847 292.483 330.461C303.787 354.469 308.026 381.679 303.787 389.681ZM508.667 324.059C525.622 360.872 512.906 405.687 487.472 405.687C457.8 405.687 450.735 380.078 467.691 335.263C488.885 285.646 488.885 285.646 508.667 324.059ZM613.226 306.453C616.052 312.855 611.813 335.263 601.922 356.07C580.728 399.285 558.12 376.877 572.25 325.66C580.728 293.649 600.509 284.045 613.226 306.453ZM404.107 351.268C415.411 399.285 389.978 437.698 365.957 410.488C347.589 389.681 360.306 309.654 381.5 309.654C388.565 309.654 399.869 328.861 404.107 351.268ZM231.726 448.902C200.641 474.51 176.62 442.499 200.641 410.488C211.944 394.483 220.422 392.882 235.965 408.888C254.333 424.893 252.92 431.296 231.726 448.902ZM569.424 447.301C563.772 463.306 555.294 464.907 534.1 452.103C512.906 439.298 510.08 431.296 524.209 412.089C543.991 383.279 582.141 412.089 569.424 447.301ZM347.589 423.293C361.719 450.502 329.22 480.912 309.439 458.505C292.483 439.298 303.787 405.687 324.981 405.687C332.046 405.687 341.937 413.69 347.589 423.293ZM460.626 423.293C474.756 450.502 442.257 480.912 422.476 458.505C405.52 439.298 416.824 405.687 438.019 405.687C445.083 405.687 454.974 413.69 460.626 423.293ZM288.244 477.711C298.135 509.722 243.03 543.334 221.835 519.326C210.531 506.521 214.77 495.317 234.552 477.711C268.463 448.902 278.354 448.902 288.244 477.711ZM528.448 477.711C548.23 495.317 552.468 506.521 541.165 519.326C519.97 543.334 464.865 509.722 474.756 477.711C484.646 448.902 494.537 448.902 528.448 477.711ZM404.107 487.315C418.237 514.524 385.739 544.934 365.957 522.527C349.002 503.32 360.306 469.709 381.5 469.709C388.565 469.709 398.456 477.711 404.107 487.315ZM347.589 536.932C364.544 567.342 312.265 599.353 278.354 578.546C250.094 562.54 250.094 560.94 284.006 540.133C326.394 512.923 334.872 512.923 347.589 536.932ZM478.994 540.133C512.906 560.94 512.906 562.54 484.646 578.546C450.735 599.353 398.456 567.342 415.411 536.932C428.128 512.923 436.606 512.923 478.994 540.133ZM268.463 613.758C268.463 620.16 258.572 629.763 247.269 636.165C231.726 642.568 226.074 632.964 226.074 602.554C226.074 568.942 228.9 564.141 247.269 581.747C258.572 592.951 268.463 607.356 268.463 613.758ZM534.1 621.76C531.274 637.766 524.209 640.967 510.08 629.763C491.711 618.559 491.711 612.157 508.667 589.75C529.861 560.94 542.578 576.945 534.1 621.76ZM421.063 602.554C445.083 634.565 389.978 668.176 354.654 642.568C322.156 620.16 339.111 581.747 381.5 581.747C395.63 581.747 412.585 591.35 421.063 602.554ZM329.22 653.771C354.654 674.578 354.654 676.179 326.394 692.184C289.657 714.592 264.224 714.592 243.03 690.584C228.9 674.578 233.139 666.576 257.159 650.57C298.135 626.562 298.135 626.562 329.22 653.771ZM500.189 648.97C528.448 663.375 532.687 671.377 521.383 688.983C501.602 714.592 474.756 716.193 436.606 692.184C408.346 676.179 408.346 674.578 433.78 653.771C464.865 626.562 457.8 626.562 500.189 648.97ZM421.063 714.592L453.561 735.399L418.237 754.606C389.978 769.011 373.022 769.011 344.763 754.606L309.439 735.399L341.937 714.592C360.306 703.388 377.261 695.386 381.5 695.386C385.739 695.386 402.694 703.388 421.063 714.592Z" fill="#9A3D00"/>
</svg>
