<svg width="115" height="117" viewBox="0 0 115 117" fill="none" xmlns="http://www.w3.org/2000/svg">
<path d="M42.4467 2.15636C39.8515 3.88127 39.8515 4.3125 43.5281 4.3125C45.9071 4.3125 50.665 5.8218 54.1253 7.54672C62.5599 12.0746 64.0738 11.6434 64.0738 5.39057C64.0738 0.43144 63.2087 0.000210762 54.9904 0.000210762C49.7999 0.000210762 44.1769 1.07828 42.4467 2.15636Z" fill="#C85103"/>
<path d="M66.8852 5.175C66.8852 7.54676 66.4527 10.9966 66.0202 12.7215C64.7225 17.6806 70.9944 17.6806 76.8337 12.9371C81.8079 8.62483 81.8079 8.40922 77.915 5.39062C70.7781 0.215866 66.669 0.00025177 66.8852 5.175Z" fill="#C85103"/>
<path d="M30.1193 11.2118C22.7661 19.4052 17.5756 31.264 23.6312 26.0892C25.3613 24.7956 33.5796 22.2082 42.0141 20.2677C58.4507 16.6022 61.4784 13.1524 52.1788 9.0557C43.528 4.95902 35.0935 6.03709 30.1193 11.2118Z" fill="#C85103"/>
<path d="M78.3473 15.309C69.6965 21.993 71.2104 25.2272 82.4565 25.0116C87.8632 24.796 92.1886 24.5804 92.1886 24.1492C92.1886 22.8555 85.4842 10.7811 84.8354 10.7811C84.4029 10.7811 81.5914 12.7216 78.3473 15.309Z" fill="#C85103"/>
<path d="M44.1767 22.6395C22.1171 28.8923 20.1707 30.8329 21.4683 42.6917C22.766 54.9817 32.4981 66.8405 44.1767 71.1528C56.0716 75.2495 58.4505 72.8777 63.8573 51.1006C66.2362 41.8292 69.264 32.7734 70.7779 31.0485C72.7244 28.6767 72.7244 27.1674 70.9942 25.4425C67.9664 22.4239 54.9902 32.5578 41.1489 48.7289C35.5259 55.1973 30.5517 59.9408 29.9029 59.294C29.2541 58.6471 37.0398 49.5913 47.4207 39.2418C57.8017 28.6767 65.5874 19.6209 64.9386 18.7584C62.9922 16.8179 64.2898 16.6023 44.1767 22.6395Z" fill="#C85103"/>
<path d="M79.8614 27.1674C78.1312 28.0299 78.9963 31.2641 82.6729 38.1637C85.4844 43.5541 87.8634 50.0225 88.0796 52.6099C88.0796 56.2754 88.7285 56.0597 91.1074 50.6694C95.6491 40.9667 95.0003 32.989 89.5935 29.3235C84.4031 25.6581 83.9705 25.6581 79.8614 27.1674Z" fill="#C85103"/>
<path d="M70.9945 36.0076C69.9131 38.1638 67.7504 45.0634 66.4528 51.3163C65.1552 57.7847 62.9925 64.9 61.6949 67.2717C60.3972 69.6435 59.9647 72.0152 60.6135 72.6621C62.7762 75.0339 77.2663 68.3498 81.3754 62.9594C86.1334 56.9222 85.7009 49.5913 80.0778 38.1638C76.4012 31.4797 73.806 30.8329 70.9945 36.0076Z" fill="#C85103"/>
<path d="M0 30.6194C0 32.5411 2.12059 34.4627 4.87735 34.9432C10.815 35.904 22.2662 54.8807 26.5073 71.215C28.2038 77.941 29.6882 90.6721 29.6882 99.5599V115.414L38.8067 115.894C50.2579 116.135 64.2538 116.135 75.917 115.894L84.8234 115.414V99.5599C84.8234 90.6721 86.3079 77.941 88.0043 71.215C92.2455 54.8807 103.697 35.904 109.846 34.9432C112.391 34.4627 114.512 32.5411 114.512 30.6194C114.512 27.7368 105.393 27.2564 57.2558 27.2564C9.11852 27.2564 0 27.7368 0 30.6194ZM21.842 35.904C22.4782 36.6246 22.4782 38.7865 21.842 40.7082C20.9938 43.3506 19.9335 43.5908 17.8129 41.4289C16.1165 39.9876 14.8441 37.8257 14.8441 36.6246C14.8441 34.2225 19.9335 33.7421 21.842 35.904ZM38.1706 37.1051C38.1706 38.5463 37.1103 41.9093 35.8379 44.5516C33.5053 49.596 33.2932 49.596 30.5364 45.2722C26.0832 38.5463 26.9314 34.4627 32.8691 34.4627C35.8379 34.4627 38.1706 35.6638 38.1706 37.1051ZM55.1352 36.6246C55.1352 37.8257 54.0749 41.9093 52.8026 45.7527C50.682 52.2384 50.47 52.2384 47.5011 47.9146C42.6238 40.2278 43.6841 34.4627 49.8338 34.4627C52.8026 34.4627 55.1352 35.4236 55.1352 36.6246ZM69.9793 38.7865C69.9793 41.1887 68.707 45.2722 67.0105 47.9146C64.0417 52.2384 63.8296 52.2384 61.7091 45.7527C58.3161 35.904 58.7402 34.4627 64.6779 34.4627C68.2829 34.4627 69.9793 35.6638 69.9793 38.7865ZM86.944 37.1051C86.944 38.5463 85.8837 41.9093 84.6114 44.5516C82.2787 49.596 82.0667 49.596 79.3099 45.2722C74.8567 38.5463 75.7049 34.4627 81.6426 34.4627C84.6114 34.4627 86.944 35.6638 86.944 37.1051ZM99.6675 36.6246C99.6675 37.8257 98.3952 39.9876 96.6987 41.4289C94.5781 43.5908 93.5179 43.3506 92.6696 40.7082C92.0334 38.7865 92.0334 36.6246 92.6696 35.904C94.5781 33.7421 99.6675 34.2225 99.6675 36.6246ZM28.6279 48.8754C30.7485 56.5622 27.3556 59.9251 24.1747 53.4394C22.6903 50.3167 22.0541 46.9537 22.4782 45.9929C24.3867 42.6299 27.3556 44.0712 28.6279 48.8754ZM45.5926 58.4839C43.6841 62.087 38.8067 61.3664 37.3223 57.0426C36.6861 55.1209 37.1103 51.0373 38.3826 48.395C40.7153 43.3506 40.9273 43.3506 43.8961 49.596C45.5926 53.1992 46.2288 57.2828 45.5926 58.4839ZM76.3411 48.6352C78.8858 54.1601 76.9773 60.886 73.1602 60.886C68.707 60.886 67.6467 57.0426 70.1914 50.3167C73.3723 42.8701 73.3723 42.8701 76.3411 48.6352ZM92.0334 45.9929C92.4576 46.9537 91.8214 50.3167 90.337 53.4394C87.1561 59.9251 83.7632 56.5622 85.8837 48.8754C87.1561 44.0712 90.1249 42.6299 92.0334 45.9929ZM60.6488 52.7188C62.3452 59.9251 58.5282 65.6902 54.9232 61.6066C52.1664 58.4839 54.0749 46.4733 57.2558 46.4733C58.3161 46.4733 60.0126 49.3558 60.6488 52.7188ZM34.7776 67.3717C30.1123 71.215 26.5073 66.4108 30.1123 61.6066C31.8088 59.2045 33.0811 58.9643 35.4138 61.3664C38.1706 63.7685 37.9585 64.7293 34.7776 67.3717ZM85.4596 67.1315C84.6114 69.5336 83.339 69.7738 80.1582 67.8521C76.9773 65.9304 76.5532 64.7293 78.6737 61.8468C81.6426 57.523 87.3681 61.8468 85.4596 67.1315ZM52.1664 63.5283C54.287 67.6119 49.4097 72.1759 46.4408 68.8129C43.8961 65.9304 45.5926 60.886 48.7735 60.886C49.8338 60.886 51.3182 62.087 52.1664 63.5283ZM69.1311 63.5283C71.2517 67.6119 66.3743 72.1759 63.4055 68.8129C60.8608 65.9304 62.5573 60.886 65.7382 60.886C66.7985 60.886 68.2829 62.087 69.1311 63.5283ZM43.26 71.6955C44.7444 76.4997 36.4741 81.5441 33.2932 77.941C31.5967 76.0193 32.2329 74.3378 35.2017 71.6955C40.2911 67.3717 41.7755 67.3717 43.26 71.6955ZM79.3099 71.6955C82.2787 74.3378 82.9149 76.0193 81.2185 77.941C78.0376 81.5441 69.7673 76.4997 71.2517 71.6955C72.7361 67.3717 74.2205 67.3717 79.3099 71.6955ZM60.6488 73.1367C62.7694 77.2203 57.892 81.7843 54.9232 78.4214C52.3785 75.5388 54.0749 70.4944 57.2558 70.4944C58.3161 70.4944 59.8005 71.6955 60.6488 73.1367ZM52.1664 80.5833C54.7111 85.1473 46.865 89.9515 41.7755 86.8288C37.5344 84.4267 37.5344 84.1864 42.6238 81.0637C48.9855 76.9801 50.2579 76.9801 52.1664 80.5833ZM71.8879 81.0637C76.9773 84.1864 76.9773 84.4267 72.7361 86.8288C67.6467 89.9515 59.8005 85.1473 62.3452 80.5833C64.2538 76.9801 65.5261 76.9801 71.8879 81.0637ZM40.2911 92.1134C40.2911 93.0742 38.8067 94.5155 37.1103 95.4764C34.7776 96.4372 33.9294 94.9959 33.9294 90.4319C33.9294 85.3875 34.3535 84.6669 37.1103 87.3092C38.8067 88.9907 40.2911 91.1526 40.2911 92.1134ZM80.1582 93.3145C79.734 95.7166 78.6737 96.197 76.5532 94.5155C73.7964 92.834 73.7964 91.8732 76.3411 88.5102C79.522 84.1864 81.4305 86.5886 80.1582 93.3145ZM63.1935 90.4319C66.7985 95.2362 58.5282 100.281 53.2267 96.4372C48.3494 93.0742 50.8941 87.3092 57.2558 87.3092C59.3764 87.3092 61.9211 88.7505 63.1935 90.4319ZM49.4097 98.1187C53.2267 101.241 53.2267 101.482 48.9855 103.884C43.472 107.247 39.655 107.247 36.4741 103.644C34.3535 101.241 34.9897 100.04 38.5947 97.6383C44.7444 94.0351 44.7444 94.0351 49.4097 98.1187ZM75.0687 97.3981C79.3099 99.5599 79.9461 100.761 78.2496 103.403C75.2808 107.247 71.2517 107.487 65.5261 103.884C61.2849 101.482 61.2849 101.241 65.102 98.1187C69.7673 94.0351 68.707 94.0351 75.0687 97.3981ZM63.1935 107.247L68.0708 110.369L62.7694 113.252C58.5282 115.414 55.9835 115.414 51.7423 113.252L46.4408 110.369L51.3182 107.247C54.0749 105.565 56.6197 104.364 57.2558 104.364C57.892 104.364 60.4367 105.565 63.1935 107.247Z" fill="#5C0601"/>
</svg>
